<svg width="36" height="36" viewBox="0 0 36 36" fill="none" xmlns="http://www.w3.org/2000/svg">
<circle cx="18" cy="18" r="18" fill="#CD877F"/>
<path d="M11 11.0745C11 10.4814 11.4965 10 12.1086 10H24.8914C25.5037 10 26 10.4814 26 11.0745V23.9257C26 24.5189 25.5037 25 24.8914 25H12.1086C11.4966 25 11 24.519 11 23.9259V11.0743V11.0745Z" fill="#111D15"/>
<path d="M15.5586 22.5531V15.8H13.3139V22.5531H15.5588H15.5586ZM14.4367 14.8782C15.2193 14.8782 15.7065 14.3596 15.7065 13.7116C15.6919 13.0488 15.2193 12.5447 14.4516 12.5447C13.6834 12.5447 13.1816 13.0488 13.1816 13.7115C13.1816 14.3596 13.6687 14.8781 14.422 14.8781H14.4365L14.4367 14.8782ZM16.801 22.5531H19.0454V18.7823C19.0454 18.5807 19.0601 18.3786 19.1194 18.2347C19.2815 17.8312 19.6509 17.4136 20.2711 17.4136C21.0831 17.4136 21.4081 18.0329 21.4081 18.9408V22.5531H23.6525V18.6811C23.6525 16.6069 22.5453 15.6417 21.0685 15.6417C19.8578 15.6417 19.3261 16.3184 19.0306 16.7793H19.0456V15.8003H16.8011C16.8304 16.4338 16.8009 22.5533 16.8009 22.5533L16.801 22.5531Z" fill="#DFDFDF"/>
</svg>
