<svg width="36" height="36" viewBox="0 0 36 36" fill="none" xmlns="http://www.w3.org/2000/svg">
<circle cx="18" cy="18" r="18" fill="#CD877F"/>
<path d="M15.0034 17.5C15.0034 16.1193 16.123 14.9998 17.5045 14.9998C18.886 14.9998 20.0062 16.1193 20.0062 17.5C20.0062 18.8807 18.886 20.0002 17.5045 20.0002C16.123 20.0002 15.0034 18.8807 15.0034 17.5ZM13.651 17.5C13.651 19.627 15.3762 21.3512 17.5045 21.3512C19.6328 21.3512 21.358 19.627 21.358 17.5C21.358 15.373 19.6328 13.6488 17.5045 13.6488C15.3762 13.6488 13.651 15.373 13.651 17.5ZM20.61 13.4961C20.6099 13.6741 20.6627 13.8482 20.7615 13.9962C20.8604 14.1443 21.001 14.2597 21.1656 14.3279C21.3301 14.396 21.5112 14.4139 21.6859 14.3793C21.8606 14.3446 22.0211 14.259 22.147 14.1332C22.273 14.0073 22.3589 13.847 22.3937 13.6724C22.4285 13.4979 22.4107 13.3169 22.3426 13.1524C22.2746 12.9879 22.1592 12.8473 22.0111 12.7484C21.8631 12.6494 21.689 12.5966 21.5109 12.5965H21.5105C21.2718 12.5966 21.0428 12.6914 20.874 12.8601C20.7051 13.0288 20.6102 13.2575 20.61 13.4961ZM14.4727 23.6048C13.741 23.5715 13.3433 23.4497 13.0791 23.3468C12.7287 23.2105 12.4787 23.0481 12.2159 22.7858C11.953 22.5235 11.7903 22.2739 11.6545 21.9237C11.5515 21.6597 11.4296 21.2622 11.3964 20.531C11.36 19.7404 11.3527 19.5029 11.3527 17.5001C11.3527 15.4972 11.3606 15.2604 11.3964 14.4692C11.4297 13.7379 11.5525 13.3412 11.6545 13.0764C11.7909 12.7262 11.9534 12.4764 12.2159 12.2137C12.4783 11.951 12.7281 11.7884 13.0791 11.6527C13.3432 11.5497 13.741 11.4279 14.4727 11.3947C15.2637 11.3583 15.5013 11.3511 17.5045 11.3511C19.5077 11.3511 19.7455 11.3589 20.5372 11.3947C21.2689 11.428 21.6659 11.5507 21.9308 11.6527C22.2812 11.7884 22.5312 11.9514 22.794 12.2137C23.0569 12.476 23.219 12.7262 23.3554 13.0764C23.4584 13.3404 23.5803 13.7379 23.6135 14.4692C23.6499 15.2604 23.6572 15.4972 23.6572 17.5001C23.6572 19.5029 23.6499 19.7397 23.6135 20.531C23.5802 21.2622 23.4577 21.6596 23.3554 21.9237C23.219 22.2739 23.0565 22.5237 22.794 22.7858C22.5316 23.0479 22.2812 23.2105 21.9308 23.3468C21.6667 23.4498 21.2689 23.5716 20.5372 23.6048C19.7462 23.6412 19.5086 23.6484 17.5045 23.6484C15.5004 23.6484 15.2635 23.6412 14.4727 23.6048ZM14.4105 10.0454C13.6116 10.0818 13.0657 10.2084 12.589 10.3938C12.0953 10.5852 11.6773 10.8421 11.2596 11.2589C10.8419 11.6756 10.5856 12.094 10.394 12.5874C10.2085 13.0642 10.0818 13.6095 10.0454 14.4079C10.0085 15.2076 10 15.4632 10 17.5C10 19.5368 10.0085 19.7924 10.0454 20.5921C10.0818 21.3906 10.2085 21.9358 10.394 22.4126C10.5856 22.9057 10.842 23.3246 11.2596 23.7411C11.6772 24.1577 12.0953 24.4142 12.589 24.6062C13.0666 24.7916 13.6116 24.9182 14.4105 24.9546C15.2111 24.9909 15.4665 25 17.5045 25C19.5425 25 19.7983 24.9915 20.5985 24.9546C21.3974 24.9182 21.943 24.7916 22.42 24.6062C22.9134 24.4142 23.3317 24.1579 23.7494 23.7411C24.1671 23.3244 24.4229 22.9057 24.615 22.4126C24.8005 21.9358 24.9278 21.3905 24.9636 20.5921C24.9999 19.7918 25.0084 19.5368 25.0084 17.5C25.0084 15.4632 24.9999 15.2076 24.9636 14.4079C24.9272 13.6094 24.8005 13.0639 24.615 12.5874C24.4229 12.0943 24.1664 11.6763 23.7494 11.2589C23.3324 10.8414 22.9134 10.5852 22.4206 10.3938C21.943 10.2084 21.3974 10.0812 20.5991 10.0454C19.7989 10.0091 19.5431 10 17.5051 10C15.4671 10 15.2111 10.0085 14.4105 10.0454Z" fill="url(#paint0_radial_231_20166)"/>
<path d="M15.0034 17.5C15.0034 16.1193 16.123 14.9998 17.5045 14.9998C18.886 14.9998 20.0062 16.1193 20.0062 17.5C20.0062 18.8807 18.886 20.0002 17.5045 20.0002C16.123 20.0002 15.0034 18.8807 15.0034 17.5ZM13.651 17.5C13.651 19.627 15.3762 21.3512 17.5045 21.3512C19.6328 21.3512 21.358 19.627 21.358 17.5C21.358 15.373 19.6328 13.6488 17.5045 13.6488C15.3762 13.6488 13.651 15.373 13.651 17.5ZM20.61 13.4961C20.6099 13.6741 20.6627 13.8482 20.7615 13.9962C20.8604 14.1443 21.001 14.2597 21.1656 14.3279C21.3301 14.396 21.5112 14.4139 21.6859 14.3793C21.8606 14.3446 22.0211 14.259 22.147 14.1332C22.273 14.0073 22.3589 13.847 22.3937 13.6724C22.4285 13.4979 22.4107 13.3169 22.3426 13.1524C22.2746 12.9879 22.1592 12.8473 22.0111 12.7484C21.8631 12.6494 21.689 12.5966 21.5109 12.5965H21.5105C21.2718 12.5966 21.0428 12.6914 20.874 12.8601C20.7051 13.0288 20.6102 13.2575 20.61 13.4961ZM14.4727 23.6048C13.741 23.5715 13.3433 23.4497 13.0791 23.3468C12.7287 23.2105 12.4787 23.0481 12.2159 22.7858C11.953 22.5235 11.7903 22.2739 11.6545 21.9237C11.5515 21.6597 11.4296 21.2622 11.3964 20.531C11.36 19.7404 11.3527 19.5029 11.3527 17.5001C11.3527 15.4972 11.3606 15.2604 11.3964 14.4692C11.4297 13.7379 11.5525 13.3412 11.6545 13.0764C11.7909 12.7262 11.9534 12.4764 12.2159 12.2137C12.4783 11.951 12.7281 11.7884 13.0791 11.6527C13.3432 11.5497 13.741 11.4279 14.4727 11.3947C15.2637 11.3583 15.5013 11.3511 17.5045 11.3511C19.5077 11.3511 19.7455 11.3589 20.5372 11.3947C21.2689 11.428 21.6659 11.5507 21.9308 11.6527C22.2812 11.7884 22.5312 11.9514 22.794 12.2137C23.0569 12.476 23.219 12.7262 23.3554 13.0764C23.4584 13.3404 23.5803 13.7379 23.6135 14.4692C23.6499 15.2604 23.6572 15.4972 23.6572 17.5001C23.6572 19.5029 23.6499 19.7397 23.6135 20.531C23.5802 21.2622 23.4577 21.6596 23.3554 21.9237C23.219 22.2739 23.0565 22.5237 22.794 22.7858C22.5316 23.0479 22.2812 23.2105 21.9308 23.3468C21.6667 23.4498 21.2689 23.5716 20.5372 23.6048C19.7462 23.6412 19.5086 23.6484 17.5045 23.6484C15.5004 23.6484 15.2635 23.6412 14.4727 23.6048ZM14.4105 10.0454C13.6116 10.0818 13.0657 10.2084 12.589 10.3938C12.0953 10.5852 11.6773 10.8421 11.2596 11.2589C10.8419 11.6756 10.5856 12.094 10.394 12.5874C10.2085 13.0642 10.0818 13.6095 10.0454 14.4079C10.0085 15.2076 10 15.4632 10 17.5C10 19.5368 10.0085 19.7924 10.0454 20.5921C10.0818 21.3906 10.2085 21.9358 10.394 22.4126C10.5856 22.9057 10.842 23.3246 11.2596 23.7411C11.6772 24.1577 12.0953 24.4142 12.589 24.6062C13.0666 24.7916 13.6116 24.9182 14.4105 24.9546C15.2111 24.9909 15.4665 25 17.5045 25C19.5425 25 19.7983 24.9915 20.5985 24.9546C21.3974 24.9182 21.943 24.7916 22.42 24.6062C22.9134 24.4142 23.3317 24.1579 23.7494 23.7411C24.1671 23.3244 24.4229 22.9057 24.615 22.4126C24.8005 21.9358 24.9278 21.3905 24.9636 20.5921C24.9999 19.7918 25.0084 19.5368 25.0084 17.5C25.0084 15.4632 24.9999 15.2076 24.9636 14.4079C24.9272 13.6094 24.8005 13.0639 24.615 12.5874C24.4229 12.0943 24.1664 11.6763 23.7494 11.2589C23.3324 10.8414 22.9134 10.5852 22.4206 10.3938C21.943 10.2084 21.3974 10.0812 20.5991 10.0454C19.7989 10.0091 19.5431 10 17.5051 10C15.4671 10 15.2111 10.0085 14.4105 10.0454Z" fill="url(#paint1_radial_231_20166)"/>
<defs>
<radialGradient id="paint0_radial_231_20166" cx="0" cy="0" r="1" gradientUnits="userSpaceOnUse" gradientTransform="translate(11.994 25.0709) scale(19.593 19.5812)">
<stop offset="0.09" stop-color="#111D15"/>
<stop offset="0.78" stop-color="#111D15"/>
</radialGradient>
<radialGradient id="paint1_radial_231_20166" cx="0" cy="0" r="1" gradientUnits="userSpaceOnUse" gradientTransform="translate(19.1023 25.7429) scale(15.442 15.4327)">
<stop offset="0.64" stop-color="#111D15"/>
<stop offset="1" stop-color="#111D15"/>
</radialGradient>
</defs>
</svg>
