<svg width="36" height="36" viewBox="0 0 36 36" fill="none" xmlns="http://www.w3.org/2000/svg">
<circle cx="18" cy="18" r="18" fill="#CD877F"/>
<path d="M27.1157 11.8019C26.5271 12.0552 25.9083 12.2316 25.2746 12.3267C25.5708 12.276 26.0068 11.7427 26.1803 11.5268C26.4439 11.2012 26.6449 10.8295 26.7729 10.4306C26.7729 10.4009 26.8025 10.3586 26.7729 10.3375C26.7579 10.3293 26.7412 10.325 26.7242 10.325C26.7072 10.325 26.6904 10.3293 26.6755 10.3375C25.9874 10.7101 25.255 10.9945 24.4958 11.184C24.4693 11.192 24.4411 11.1928 24.4143 11.1861C24.3875 11.1794 24.3629 11.1655 24.3434 11.1459C24.2843 11.0755 24.2207 11.009 24.1529 10.9469C23.8432 10.6695 23.4919 10.4424 23.1117 10.274C22.5986 10.0634 22.0443 9.97226 21.4907 10.0073C20.9535 10.0412 20.4291 10.1853 19.95 10.4306C19.4783 10.6892 19.0636 11.0404 18.7311 11.4633C18.3812 11.8986 18.1287 12.4037 17.9904 12.9447C17.8763 13.4593 17.8634 13.9912 17.9523 14.5107C17.9523 14.5996 17.9523 14.6123 17.8761 14.5996C14.8583 14.1552 12.3823 13.0844 10.3591 10.7861C10.2703 10.6845 10.2237 10.6845 10.1517 10.7861C9.27138 12.1236 9.69886 14.2398 10.7993 15.2853C10.9475 15.425 11.0998 15.5604 11.2607 15.6874C10.7561 15.6516 10.2639 15.5148 9.81314 15.2853C9.72849 15.2303 9.68193 15.2599 9.6777 15.3615C9.6657 15.5023 9.6657 15.6439 9.6777 15.7847C9.76601 16.4596 10.032 17.099 10.4484 17.6374C10.8649 18.1758 11.4169 18.5939 12.0479 18.8491C12.2017 18.915 12.362 18.9646 12.5262 18.9972C12.0591 19.0892 11.58 19.1035 11.1083 19.0395C11.0067 19.0184 10.9686 19.0734 11.0067 19.1707C11.6289 20.8637 12.9791 21.3801 13.9695 21.6679C14.1049 21.6891 14.2404 21.6891 14.3927 21.723C14.3927 21.723 14.3927 21.723 14.3673 21.7483C14.0753 22.2816 12.8944 22.6414 12.3527 22.8276C11.3638 23.1828 10.3095 23.3186 9.26291 23.2255C9.09784 23.2001 9.05975 23.2043 9.01743 23.2255C8.9751 23.2467 9.01743 23.2932 9.06398 23.3355C9.27561 23.4752 9.48724 23.598 9.70733 23.7165C10.3625 24.0738 11.0552 24.3577 11.7728 24.563C15.489 25.5872 19.6707 24.8339 22.4599 22.0616C24.6524 19.886 25.4227 16.8852 25.4227 13.8801C25.4227 13.7658 25.5624 13.6981 25.6428 13.6388C26.1975 13.2066 26.6865 12.6962 27.0945 12.1236C27.1652 12.0382 27.2014 11.9295 27.1961 11.8188C27.1961 11.7554 27.1961 11.7681 27.1157 11.8019Z" fill="#111D15"/>
</svg>
